HIERARCHY
ROOT Hips
{
	OFFSET 0.000000 0.000000 0.000000
	CHANNELS 6 Xposition Yposition Zposition Zrotation Yrotation Xrotation 
	JOINT LHipJoint
	{
		OFFSET 0.000000 0.000000 0.000000
		CHANNELS 3 Zrotation Yrotation Xrotation
		JOINT LeftUpLeg
		{
			OFFSET 1.363060 -1.794630 0.839290
			CHANNELS 3 Zrotation Yrotation Xrotation
			JOINT LeftLeg
			{
				OFFSET 2.448110 -6.726130 0.000000
				CHANNELS 3 Zrotation Yrotation Xrotation
				JOINT LeftFoot
				{
					OFFSET 2.562200 -7.039590 0.000000
					CHANNELS 3 Zrotation Yrotation Xrotation
					JOINT LeftToeBase
					{
						OFFSET 0.157640 -0.433110 2.322550
						CHANNELS 3 Zrotation Yrotation Xrotation
						End Site
						{
							OFFSET 0.000000 0.000000 0.000000
						}
					}
				}
			}
		}
	}
	JOINT RHipJoint
	{
		OFFSET 0.000000 0.000000 0.000000
		CHANNELS 3 Zrotation Yrotation Xrotation
		JOINT RightUpLeg
		{
			OFFSET -1.305520 -1.794630 0.839290
			CHANNELS 3 Zrotation Yrotation Xrotation
			JOINT RightLeg
			{
				OFFSET -2.542530 -6.985550 0.000000
				CHANNELS 3 Zrotation Yrotation Xrotation
				JOINT RightFoot
				{
					OFFSET -2.568260 -7.056230 0.000000
					CHANNELS 3 Zrotation Yrotation Xrotation
					JOINT RightToeBase
					{
						OFFSET -0.164730 -0.452590 2.363150
						CHANNELS 3 Zrotation Yrotation Xrotation
						End Site
						{
							OFFSET 0.000000 0.000000 0.000000
						}
					}
				}
			}
		}
	}
	JOINT LowerBack
	{
		OFFSET 0.000000 0.000000 0.000000
		CHANNELS 3 Zrotation Yrotation Xrotation
		JOINT Spine
		{
			OFFSET 0.028270 2.035590 -0.193380
			CHANNELS 3 Zrotation Yrotation Xrotation
			JOINT Spine1
			{
				OFFSET 0.056720 2.048850 -0.042750
				CHANNELS 3 Zrotation Yrotation Xrotation
				JOINT Neck
				{
					OFFSET 0.000000 0.000000 0.000000
					CHANNELS 3 Zrotation Yrotation Xrotation
					JOINT Neck1
					{
						OFFSET -0.054170 1.746240 0.172020
						CHANNELS 3 Zrotation Yrotation Xrotation
						JOINT Head
						{
							OFFSET 0.104070 1.761360 -0.123970
							CHANNELS 3 Zrotation Yrotation Xrotation
							End Site
							{
								OFFSET 0.000000 0.000000 0.000000
							}
						}
					}
				}
				JOINT LeftShoulder
				{
					OFFSET 0.000000 0.000000 0.000000
					CHANNELS 3 Zrotation Yrotation Xrotation
					JOINT LeftArm
					{
						OFFSET 3.362410 1.200890 -0.311210
						CHANNELS 3 Zrotation Yrotation Xrotation
						JOINT LeftForeArm
						{
							OFFSET 4.983000 -0.000000 -0.000000
							CHANNELS 3 Zrotation Yrotation Xrotation
							JOINT LeftHand
							{
								OFFSET 3.483560 -0.000000 -0.000000
								CHANNELS 3 Zrotation Yrotation Xrotation
								JOINT LeftFingerBase
								{
									OFFSET 0.000000 0.000000 0.000000
									CHANNELS 3 Zrotation Yrotation Xrotation
									JOINT LeftHandIndex1
									{
										OFFSET 0.715260 -0.000000 -0.000000
										CHANNELS 3 Zrotation Yrotation Xrotation
										End Site
										{
											OFFSET 0.000000 0.000000 0.000000
										}
									}
								}
								JOINT LThumb
								{
									OFFSET 0.000000 0.000000 0.000000
									CHANNELS 3 Zrotation Yrotation Xrotation
									End Site
									{
										OFFSET 0.000000 0.000000 0.000000
									}
								}
							}
						}
					}
				}
				JOINT RightShoulder
				{
					OFFSET 0.000000 0.000000 0.000000
					CHANNELS 3 Zrotation Yrotation Xrotation
					JOINT RightArm
					{
						OFFSET -3.136600 1.374050 -0.404650
						CHANNELS 3 Zrotation Yrotation Xrotation
						JOINT RightForeArm
						{
							OFFSET -5.241900 -0.000000 -0.000000
							CHANNELS 3 Zrotation Yrotation Xrotation
							JOINT RightHand
							{
								OFFSET -3.444170 -0.000000 -0.000000
								CHANNELS 3 Zrotation Yrotation Xrotation
								JOINT RightFingerBase
								{
									OFFSET 0.000000 0.000000 0.000000
									CHANNELS 3 Zrotation Yrotation Xrotation
									JOINT RightHandIndex1
									{
										OFFSET -0.622530 -0.000000 -0.000000
										CHANNELS 3 Zrotation Yrotation Xrotation
										End Site
										{
											OFFSET 0.000000 0.000000 0.000000
										}
									}
								}
								JOINT RThumb
								{
									OFFSET 0.000000 0.000000 0.000000
									CHANNELS 3 Zrotation Yrotation Xrotation
									End Site
									{
										OFFSET 0.000000 0.000000 0.000000
									}
								}
							}
						}
					}
				}
			}
		}
	}
}
MOTION
Frames: 9
Frame Time: 0.008333
-28.813935 17.485887 0.676151 46.288654 88.112998 41.124465 2.922593 -1.813643 -0.252676 -16.602636 1.592778 16.973366 -1.912811 -0.873077 -1.611145 -1.154585 13.704319 -13.670675 0.097600 -2.014700 -5.546400 -5.059064 5.567369 -7.303077 15.178234 -16.962407 20.638241 -0.282400 -2.177394 0.680843 -0.370672 -7.604252 -20.600956 -0.449100 -4.299500 11.920700 -1.909582 1.082857 8.348151 -0.711126 1.288214 -2.370189 1.255588 0.356668 2.384866 2.666992 3.176334 -20.233882 3.311614 2.854058 6.096197 -0.955300 1.487600 9.470700 5.326743 -0.807637 1.091477 -4.210091 -0.184707 -0.007219 -1.157403 -0.262234 -0.000045 -0.032240 -0.012013 -0.000022 -0.032240 -0.012013 -0.000000 0.000000 0.000000 0.000000 0.000000 0.000000 0.000000 -3.911038 0.151847 1.625081 4.636234 -1.018091 0.012190 -0.913633 -0.234579 0.000170 -0.051311 0.021761 0.000085 -0.051312 0.021762 0.000000 0.000000 0.000000 0.000000 0.000000 0.000000 0.000000 
-28.820673 17.483743 0.672884 47.914968 87.764842 42.770112 2.885209 -1.742789 -0.197426 -16.953353 1.526688 16.878454 -1.923634 -0.822909 -1.560019 -1.166841 13.835759 -13.752777 0.067900 -1.680900 -4.624600 -5.054568 5.681584 -7.343000 14.828604 -16.830371 20.716571 -0.287729 -2.130189 0.630404 -0.376225 -7.637042 -20.658176 -0.449900 -4.303200 11.931400 -1.779170 1.007564 8.417328 -0.491366 1.244698 -2.245389 0.630479 0.343300 1.775896 1.956714 2.951829 -19.885057 3.822874 2.794034 6.167504 -0.929000 1.488900 9.481300 6.295910 -0.679159 0.031888 -94.593680 0.673002 38.606324 12.547222 -21.206246 -2.574735 -0.006229 0.647105 14.222240 7.262754 -25.236781 -3.254300 -7.125000 0.000000 0.000000 -13.474700 4.534000 12.731800 -4.735936 0.334361 1.846945 5.819994 -0.758780 0.019312 -1.450868 -0.370300 0.000260 -0.064500 0.022353 0.000130 -0.064500 0.022353 0.000000 0.000000 0.000000 0.000000 0.000000 0.000000 0.000000 
-28.819142 17.480374 0.672884 45.631647 87.743453 40.645318 2.847887 -1.813252 -0.216894 -16.677584 1.946248 16.548493 -1.901576 -0.782794 -1.437942 -1.129148 13.494882 -13.500030 0.079800 -1.822100 -5.014200 -5.110009 5.584965 -7.316986 15.006913 -16.730630 20.515035 -0.296748 -2.122468 0.588759 -0.375844 -7.580249 -20.595615 -0.476700 -4.428000 12.283900 -1.708867 1.002606 8.195946 -0.486804 1.247077 -2.250397 0.589547 0.329912 1.864476 1.935345 2.967033 -19.895207 3.826384 2.826016 6.245250 -0.917400 1.506100 9.519200 6.292975 -0.683317 0.034831 -94.581529 0.659122 38.646381 12.418086 -21.023389 -2.527757 0.021820 0.641350 14.099564 6.017067 -25.223220 -2.690600 -7.125000 0.000000 0.000000 -14.235000 4.668700 13.460000 -4.731743 0.314765 1.835532 5.812592 -0.756560 0.019181 -1.446674 -0.369144 0.000258 -0.064450 0.022225 0.000129 -0.064450 0.022225 0.000000 0.000000 0.000000 0.000000 0.000000 0.000000 0.000000 
-28.817814 17.463631 0.664920 60.416833 86.129103 55.118358 2.939258 -1.558410 -0.062378 -18.585997 3.153269 15.973039 -1.882079 -0.474797 -1.061413 -0.987333 12.579287 -12.837946 0.108300 -2.121600 -5.841800 -4.790104 6.314144 -7.498402 11.876897 -17.536771 21.193821 -0.285379 -2.041543 0.651083 -0.427388 -6.791831 -20.193850 -0.491600 -4.495600 12.475300 -3.554182 1.124958 8.448541 -0.690282 1.298577 -2.220579 0.933015 0.442704 1.876810 1.941073 2.977102 -19.935897 3.762936 2.838338 6.362677 -0.971300 1.509500 9.599700 6.258843 -0.581243 0.022239 -94.582681 0.760433 38.695937 12.195375 -20.706235 -2.443714 0.011047 0.656546 15.106240 7.070525 -25.556571 -3.204900 -7.125000 0.000000 0.000000 -13.598400 4.231600 12.934700 -4.777030 0.396267 1.867420 5.858291 -0.718826 0.019583 -1.472823 -0.376873 0.000264 -0.064819 0.022144 0.000132 -0.064819 0.022145 0.000000 0.000000 0.000000 0.000000 0.000000 0.000000 0.000000 
-28.814752 17.463835 0.664206 57.544249 86.362110 52.224534 2.942828 -1.610709 -0.073953 -18.217191 3.209532 16.083204 -1.875732 -0.537370 -1.146379 -0.992022 12.601894 -12.914749 0.084700 -1.876900 -5.165600 -4.812709 6.213345 -7.442529 12.216134 -17.637910 21.207716 -0.290480 -1.986462 0.431867 -0.412363 -6.725889 -19.982305 -0.489500 -4.485900 12.447800 -3.105219 1.120215 8.692498 -0.682521 1.303878 -2.337411 0.715434 0.455450 1.417166 1.943009 2.939950 -19.754768 3.779697 2.793936 6.526484 -0.957900 1.502300 9.674300 6.238618 -0.599910 0.007888 -94.441163 1.521183 39.322731 11.830714 -20.137037 -2.297433 -0.080001 0.711428 17.980097 12.414817 -26.061769 -5.786300 -7.125000 0.000000 0.000000 -10.349600 3.089000 9.942900 -4.766469 0.403924 1.874545 5.826126 -0.742224 0.019498 -1.459386 -0.372828 0.000263 -0.064596 0.022380 0.000131 -0.064596 0.022380 0.000000 0.000000 0.000000 0.000000 0.000000 0.000000 0.000000 
-28.821796 17.467102 0.667064 55.664344 86.694611 50.316155 2.946838 -1.635840 -0.096573 -17.789545 3.107914 16.145497 -1.871880 -0.563208 -1.136291 -0.995416 12.598895 -12.980348 0.061800 -1.604600 -4.414000 -4.845759 6.155483 -7.422497 12.575422 -17.885386 21.326946 -0.293312 -1.868038 0.017882 -0.373984 -6.833568 -19.632376 -0.461100 -4.355700 12.079600 -2.756521 1.049006 8.773113 -0.643924 1.231726 -2.324181 0.648652 0.406193 1.405045 1.953503 2.990336 -19.682661 3.784962 2.860085 6.518167 -0.946800 1.533700 9.651900 6.241120 -0.616170 0.016218 -94.449256 1.524351 39.257033 11.785767 -20.069108 -2.281758 -0.073997 0.702677 17.623059 11.879344 -25.856912 -5.490900 -7.125000 0.000000 0.000000 -10.665700 3.367400 10.202000 -4.758520 0.391038 1.870005 5.818841 -0.749405 0.019438 -1.455400 -0.371717 0.000262 -0.064550 0.022404 0.000131 -0.064550 0.022404 0.000000 0.000000 0.000000 0.000000 0.000000 0.000000 0.000000 
-28.822613 17.467307 0.667473 53.910249 86.838878 48.625989 2.943847 -1.671868 -0.122442 -17.724048 2.748677 16.329655 -1.888129 -0.637844 -1.284968 -1.042920 12.972656 -13.213079 0.055000 -1.512700 -4.160700 -4.875482 6.093909 -7.398443 12.772656 -18.007029 21.257186 -0.299868 -1.818341 -0.170198 -0.358179 -6.783396 -19.379206 -0.422100 -4.169700 11.554600 -2.548758 1.040720 8.689346 -0.636537 1.237707 -2.322178 0.556275 0.399480 1.436732 1.990155 2.963810 -19.617062 3.785431 2.813894 6.543105 -0.957500 1.517600 9.645400 6.237491 -0.623598 0.021059 -94.416377 1.529026 39.181570 11.699339 -19.940429 -2.250746 -0.072601 0.699222 17.498966 11.665317 -25.742770 -5.368500 -7.125000 0.000000 0.000000 -10.790100 3.510300 10.296500 -4.752349 0.376540 1.862092 5.806394 -0.751978 0.019309 -1.449261 -0.370104 0.000260 -0.064470 0.022340 0.000130 -0.064470 0.022340 0.000000 0.000000 0.000000 0.000000 0.000000 0.000000 0.000000 
-28.820571 17.468225 0.663389 53.953581 86.719800 48.748635 2.946042 -1.681183 -0.127842 -18.003954 2.502088 16.427746 -1.906016 -0.681783 -1.421273 -1.093926 13.358228 -13.297451 0.065200 -1.647800 -4.533300 -4.875947 6.091827 -7.386968 12.646833 -18.003468 21.035751 -0.299542 -1.901297 0.073068 -0.373084 -6.639988 -19.400208 -0.378900 -3.953400 10.945500 -2.564909 1.048176 8.598450 -0.668503 1.248170 -2.338310 0.452609 0.412773 1.408217 2.010328 2.931937 -19.442219 3.786787 2.765479 6.539824 -0.965400 1.499200 9.598000 6.222102 -0.618937 0.023576 -94.348731 1.593568 39.130210 11.612284 -19.806802 -2.219254 -0.078086 0.691361 17.381768 11.667856 -25.372005 -5.299000 -7.125000 0.000000 0.000000 -10.768600 3.885600 10.199200 -4.753396 0.374514 1.859330 5.788848 -0.753260 0.019167 -1.441437 -0.368287 0.000258 -0.064367 0.022277 0.000129 -0.064367 0.022277 0.000000 0.000000 0.000000 0.000000 0.000000 0.000000 0.000000 
-28.819754 17.470676 0.659510 54.227026 86.582594 49.063496 2.940726 -1.687404 -0.118335 -17.999720 2.892054 16.155773 -1.889930 -0.617488 -1.284640 -1.057556 13.056857 -13.073492 0.069400 -1.699200 -4.675100 -4.872744 6.078454 -7.387792 12.616460 -17.766900 20.857804 -0.297121 -2.016671 0.432176 -0.394014 -6.645945 -19.659419 -0.386400 -3.991900 11.053800 -2.636258 1.035947 8.568987 -0.682440 1.226579 -2.352384 0.430812 0.409426 1.361489 2.013837 2.977763 -19.300342 3.746261 2.826258 6.541284 -0.982200 1.523300 9.565700 6.218175 -0.619560 0.027553 -94.381027 1.661079 39.019057 11.529312 -19.682794 -2.189760 -0.087728 0.681095 17.160078 11.770344 -24.899594 -5.254900 -7.125000 0.000000 0.000000 -10.681200 4.352100 10.018900 -4.753279 0.371433 1.858083 5.786491 -0.754350 0.019137 -1.440160 -0.367962 0.000258 -0.064372 0.022267 0.000129 -0.064372 0.022267 0.000000 0.000000 0.000000 0.000000 0.000000 0.000000 0.000000 
